#!OML:ASF F:\VICON\USERDATA\INSTALL\Justin_Nancy\Justin_Nancy.ASF
:FULLY-SPECIFIED
:DEGREES
1
root 12.5175 16.3713 -29.5175 2.34301 -4.55467 2.03689
lowerback 12.5386 -0.604115 -0.0384166
upperback 1.54793 -0.59205 3.74745
thorax -5.36659 -0.256483 4.07216
lowerneck -15.2386 -1.98116 -7.60908
upperneck 8.34965 -1.31759 1.86687
head 5.05141 -0.76911 1.69266
rclavicle -3.97569e-015 5.56597e-014
rhumerus -45.0382 7.68672 -86.2222
rradius 101.811
rwrist 5.88339
rhand -13.6582 26.6522
rfingers 7.12502
rthumb 12.4587 -2.95643
lclavicle -3.97569e-015 5.56597e-014
lhumerus -46.1193 -2.0959 96.8487
lradius 85.0771
lwrist 23.8016
lhand -22.3403 8.3274
lfingers 7.12502
lthumb 4.08019 38.2681
rfemur -15.7308 0.339345 34.0327
rtibia 48.1063
rfoot -22.8373 -21.0686
rtoes 3.28776
lfemur -29.2494 6.12261 -9.67516
ltibia 91.1651
lfoot 2.40492 -2.66466
ltoes 3.65108
2
root 12.441 16.3593 -28.9855 2.75076 -3.79498 1.98535
lowerback 12.176 -0.574597 0.0633619
upperback 1.4685 -0.543159 3.75532
thorax -5.25339 -0.234677 4.00694
lowerneck -15.1477 -2.27154 -7.58675
upperneck 7.88151 -1.71959 1.85381
head 4.90844 -0.957464 1.6498
rclavicle -6.75868e-015 -9.54166e-015
rhumerus -44.3128 8.05876 -86.5991
rradius 103.803
rwrist 4.35257
rhand -14.4422 26.5378
rfingers 7.12502
rthumb 11.7027 -3.11532
lclavicle -6.75868e-015 -9.54166e-015
lhumerus -47.3782 -2.61472 97.0873
lradius 86.1034
lwrist 23.9104
lhand -21.957 7.37901
lfingers 7.12502
lthumb 4.45031 37.3123
rfemur -13.7971 -0.293135 34.3631
rtibia 47.393
rfoot -23.0797 -21.587
rtoes 1.44949
lfemur -32.6515 6.02693 -9.71924
ltibia 90.6592
lfoot -2.12567 -1.98138
ltoes -8.19804
3
root 12.3693 16.3713 -28.4311 2.99441 -3.3526 1.71782
lowerback 11.9632 -0.498761 0.437003
upperback 1.32271 -0.390134 3.80392
thorax -5.3017 -0.16467 3.81878
lowerneck -14.7758 -2.4525 -7.77697
upperneck 7.67982 -1.9816 2.07492
head 4.8019 -1.07463 1.72944
rclavicle -2.38542e-014 -4.77083e-015
rhumerus -43.7808 8.60931 -87.0141
rradius 105.795
rwrist 2.50814
rhand -15.0484 26.32
rfingers 7.12502
rthumb 11.118 -3.36551
lclavicle -2.38542e-014 -4.77083e-015
lhumerus -48.9443 -3.06365 97.3752
lradius 87.416
lwrist 24.2465
lhand -21.6887 6.65989
lfingers 7.12502
lthumb 4.70939 36.5875
rfemur -11.3263 -0.833572 34.839
rtibia 46.1856
rfoot -22.6534 -21.864
rtoes -1.2688
lfemur -35.4824 6.2083 -9.64441
ltibia 89.4655
lfoot -3.07454 -1.20957
ltoes -8.7178
4
root 12.3005 16.3917 -27.8661 3.07747 -3.30341 1.41642
lowerback 11.9503 -0.249827 0.944704
upperback 1.14464 0.0104157 3.74814
thorax -5.50745 0.0235571 3.40816
lowerneck -14.4203 -2.66444 -7.9082
upperneck 7.6163 -2.30842 2.4124
head 4.74625 -1.21714 1.83114
rclavicle 8.54774e-015 6.04305e-014
rhumerus -43.3133 8.94203 -87.4538
rradius 107.659
rwrist 0.117835
rhand -15.1855 26.2971
rfingers 7.12502
rthumb 10.9858 -3.3955
lclavicle 8.54774e-015 6.04305e-014
lhumerus -50.5678 -3.78768 97.63
lradius 88.7229
lwrist 24.8859
lhand -21.1657 6.07994
lfingers 7.12502
lthumb 5.21434 35.9958
rfemur -8.57203 -1.08796 35.2642
rtibia 44.9117
rfoot -21.9363 -21.8066
rtoes -3.40416
lfemur -37.6446 6.72725 -9.62645
ltibia 87.9247
lfoot -3.72599 -0.118958
ltoes -8.01022
5
root 12.2358 16.4254 -27.2868 3.15182 -3.56721 1.08042
lowerback 11.8488 0.117114 1.55108
upperback 0.93093 0.576698 3.64968
thorax -5.69889 0.287909 2.86766
lowerneck -14.1239 -3.06843 -8.09945
upperneck 8.06588 -2.87977 2.76454
head 4.87635 -1.48929 1.92508
rclavicle 1.03368e-014 0
rhumerus -43.3207 9.04269 -87.9434
rradius 109.67
rwrist -2.37084
rhand -15.3272 26.6746
rfingers 7.12502
rthumb 10.8491 -3.02517
lclavicle 1.03368e-014 0
lhumerus -52.2859 -4.62574 97.8917
lradius 90.0034
lwrist 25.5359
lhand -20.3722 5.7676
lfingers 7.12502
lthumb 5.98051 35.6632
rfemur -5.62949 -1.13357 35.6116
rtibia 43.3404
rfoot -20.593 -21.3749
rtoes -4.84353
lfemur -39.2807 7.35194 -9.66685
ltibia 85.8621
lfoot -4.59158 1.36327
ltoes -6.18873
6
root 12.1754 16.4719 -26.6958 3.17691 -4.03417 0.75724
lowerback 11.5823 0.605037 2.22262
upperback 0.842646 1.29392 3.47406
thorax -5.65167 0.621359 2.18429
lowerneck -13.8685 -3.65799 -8.17759
upperneck 8.81258 -3.71384 3.02239
head 5.12038 -1.89605 1.94593
rclavicle -9.14409e-015 -3.18055e-015
rhumerus -43.3506 8.96273 -88.4775
rradius 111.623
rwrist -3.85067
rhand -16.1202 26.8244
rfingers 7.12502
rthumb 10.0842 -2.91393
lclavicle -9.14409e-015 -3.18055e-015
lhumerus -53.9208 -5.5671 98.0495
lradius 91.4317
lwrist 26.16
lhand -19.8182 5.81958
lfingers 7.12502
lthumb 6.51535 35.6994
rfemur -2.59154 -1.06608 35.8244
rtibia 41.5842
rfoot -18.8782 -20.5269
rtoes -5.71575
lfemur -40.5807 8.03344 -9.80254
ltibia 83.327
lfoot -5.45636 2.71877
ltoes -4.09795
7
root 12.115 16.5243 -26.0898 3.34586 -4.59276 0.51148
lowerback 10.9448 1.10524 2.78375
upperback 0.848352 1.98774 3.31528
thorax -5.27968 0.949427 1.59818
lowerneck -13.6112 -4.0959 -8.35668
upperneck 9.01187 -4.33743 3.38168
head 5.18784 -2.18744 2.03403
rclavicle 3.57812e-015 1.90833e-014
rhumerus -43.2304 9.21813 -88.9548
rradius 113.491
rwrist -4.6104
rhand -16.9206 26.657
rfingers 7.12502
rthumb 9.31195 -3.11731
lclavicle 3.57812e-015 1.90833e-014
lhumerus -55.274 -6.24316 98.1369
lradius 92.814
lwrist 26.61
lhand -18.7118 5.88871
lfingers 7.12502
lthumb 7.58329 35.7328
rfemur 0.314462 -1.01196 35.7919
rtibia 39.6834
rfoot -16.7072 -19.2898
rtoes -6.7877
lfemur -41.6992 8.82128 -10.0642
ltibia 80.3557
lfoot -6.91163 3.68427
ltoes -7.56912
8
root 12.0584 16.5791 -25.4685 3.74193 -5.15318 0.285524
lowerback 9.86283 1.52817 3.43125
upperback 0.781268 2.55889 3.12883
thorax -4.71287 1.22116 0.980823
lowerneck -13.4187 -4.23924 -8.55975
upperneck 9.26574 -4.56321 3.78544
head 5.26356 -2.28238 2.17498
rclavicle -3.43897e-014 -4.29375e-014
rhumerus -43.2775 9.73112 -89.4589
rradius 115.231
rwrist -5.14624
rhand -17.2434 26.4412
rfingers 7.12502
rthumb 9.00049 -3.34675
lclavicle -3.43897e-014 -4.29375e-014
lhumerus -56.649 -6.73604 98.1466
lradius 94.0929
lwrist 26.8421
lhand -16.8318 5.6199
lfingers 7.12502
lthumb 9.39762 35.3904
rfemur 2.99864 -0.92379 35.6067
rtibia 37.6623
rfoot -13.8846 -17.7971
rtoes -8.60573
lfemur -42.766 9.48837 -10.3614
ltibia 77.0575
lfoot -8.24474 4.48142
ltoes -10.5345
9
root 12.0009 16.6296 -24.8379 4.23249 -5.60946 0.427858
lowerback 8.60993 1.9464 3.72439
upperback 0.68243 3.06262 2.81741
thorax -4.07901 1.4713 0.468707
lowerneck -13.6718 -4.48941 -8.90769
upperneck 9.99529 -4.90088 4.3808
head 5.5797 -2.42353 2.38052
rclavicle 1.03368e-014 -2.22639e-014
rhumerus -43.3651 10.2453 -89.9404
rradius 116.882
rwrist -5.22067
rhand -17.0843 26.467
rfingers 7.12502
rthumb 9.15398 -3.31435
lclavicle 1.03368e-014 -2.22639e-014
lhumerus -58.0803 -7.04765 98.0425
lradius 95.3775
lwrist 26.8492
lhand -17.4068 6.45808
lfingers 7.12502
lthumb 8.84276 36.2528
rfemur 5.50864 -0.824323 34.9699
rtibia 35.6346
rfoot -10.7938 -16.0218
rtoes -9.6839
lfemur -43.7322 9.91939 -11.0441
ltibia 73.4021
lfoot -8.41711 5.42854
ltoes -10.6907
10
root 11.9435 16.6778 -24.1876 4.4006 -6.42505 0.694128
lowerback 7.64632 2.51418 3.84966
upperback 0.658814 3.75805 2.43623
thorax -3.51844 1.82102 -0.0291555
lowerneck -13.8015 -4.79906 -9.22818
upperneck 10.624 -5.34637 5.01651
head 5.85657 -2.6109 2.5864
rclavicle 2.44505e-014 -6.36111e-015
rhumerus -43.3682 10.6253 -90.35
rradius 118.245
rwrist -4.80361
rhand -16.8734 27.2006
rfingers 7.12502
rthumb 9.35745 -2.57168
lclavicle 2.44505e-014 -6.36111e-015
lhumerus -59.4354 -7.45662 97.8619
lradius 96.5707
lwrist 26.7539
lhand -17.7641 7.25676
lfingers 7.12502
lthumb 8.498 37.0658
rfemur 8.3406 -0.347925 34.0821
rtibia 33.5948
rfoot -7.76384 -13.7651
rtoes -7.46841
lfemur -43.9195 10.4772 -11.7259
ltibia 69.3771
lfoot -8.76617 5.16613
ltoes -10.5914
11
root 11.8754 16.7072 -23.5822 4.75022 -6.19494 0.813201
lowerback 7.09694 2.6679 4
upperback 0.319007 3.95015 2.1837
thorax -3.5307 1.90979 -0.37284
lowerneck -13.5528 -4.9951 -9.41511
upperneck 11.179 -5.67261 5.41758
head 6.03223 -2.75552 2.71455
rclavicle -1.09332e-014 -9.54166e-015
rhumerus -43.5438 11.2923 -90.7817
rradius 119.451
rwrist -4.13085
rhand -16.8135 27.7675
rfingers 7.12502
rthumb 9.41526 -2.00221
lclavicle -1.09332e-014 -9.54166e-015
lhumerus -60.8102 -7.48409 97.533
lradius 97.6657
lwrist 26.8315
lhand -16.39 7.34378
lfingers 7.12502
lthumb 9.82391 37.0946
rfemur 10.4802 -0.259314 33.6519
rtibia 31.7459
rfoot -4.3347 -11.6424
rtoes -2.3675
lfemur -44.6682 9.69579 -11.9681
ltibia 65.0591
lfoot -8.16104 4.29781
ltoes -8.69757
